<mxfile>
    <diagram id="w5-DUZbJNW_q1rlRQSwg" name="2">
        <mxGraphModel dx="1296" dy="790" grid="1" gridSize="10" guides="1" tooltips="1" connect="1" arrows="1" fold="1" page="1" pageScale="1" pageWidth="827" pageHeight="1169" math="0" shadow="0">
            <root>
                <mxCell id="kMUpX2FhetktPCQvNUx9-0"/>
                <mxCell id="kMUpX2FhetktPCQvNUx9-1" parent="kMUpX2FhetktPCQvNUx9-0"/>
                <mxCell id="JQU1K72GTcBpeBaOa4Lr-0" value="" style="rounded=0;whiteSpace=wrap;html=1;" parent="kMUpX2FhetktPCQvNUx9-1" vertex="1">
                    <mxGeometry x="90" y="50" width="670" height="410" as="geometry"/>
                </mxCell>
                <mxCell id="JQU1K72GTcBpeBaOa4Lr-1" value="" style="rounded=0;whiteSpace=wrap;html=1;" parent="kMUpX2FhetktPCQvNUx9-1" vertex="1">
                    <mxGeometry x="90" y="50" width="120" height="410" as="geometry"/>
                </mxCell>
                <mxCell id="JQU1K72GTcBpeBaOa4Lr-2" value="&lt;font style=&quot;font-size: 36px&quot;&gt;Boon&lt;/font&gt;" style="text;html=1;strokeColor=none;fillColor=none;align=center;verticalAlign=middle;whiteSpace=wrap;rounded=0;" parent="kMUpX2FhetktPCQvNUx9-1" vertex="1">
                    <mxGeometry x="95" y="60" width="110" height="50" as="geometry"/>
                </mxCell>
                <mxCell id="JQU1K72GTcBpeBaOa4Lr-3" value="" style="strokeWidth=1;html=1;shadow=0;dashed=0;shape=mxgraph.android.rrect;rSize=0;strokeColor=#888888;fillColor=#444444;" parent="kMUpX2FhetktPCQvNUx9-1" vertex="1">
                    <mxGeometry x="90" y="130" width="120" height="90" as="geometry"/>
                </mxCell>
                <mxCell id="JQU1K72GTcBpeBaOa4Lr-4" value="Por categoría" style="strokeColor=inherit;fillColor=inherit;gradientColor=inherit;strokeWidth=1;html=1;shadow=0;dashed=0;shape=mxgraph.android.rrect;rSize=0;align=left;spacingLeft=10;fontSize=8;fontColor=#ffffff;" parent="JQU1K72GTcBpeBaOa4Lr-3" vertex="1">
                    <mxGeometry width="120" height="22.5" as="geometry"/>
                </mxCell>
                <mxCell id="JQU1K72GTcBpeBaOa4Lr-5" value="Por ubicación" style="strokeColor=inherit;fillColor=inherit;gradientColor=inherit;strokeWidth=1;html=1;shadow=0;dashed=0;shape=mxgraph.android.rrect;rSize=0;align=left;spacingLeft=10;fontSize=8;fontColor=#ffffff;" parent="JQU1K72GTcBpeBaOa4Lr-3" vertex="1">
                    <mxGeometry y="22.5" width="120" height="22.5" as="geometry"/>
                </mxCell>
                <mxCell id="JQU1K72GTcBpeBaOa4Lr-6" value="Por nececidades" style="strokeColor=inherit;fillColor=inherit;gradientColor=inherit;strokeWidth=1;html=1;shadow=0;dashed=0;shape=mxgraph.android.rrect;rSize=0;align=left;spacingLeft=10;fontSize=8;fontColor=#ffffff;" parent="JQU1K72GTcBpeBaOa4Lr-3" vertex="1">
                    <mxGeometry y="45" width="120" height="22.5" as="geometry"/>
                </mxCell>
                <mxCell id="JQU1K72GTcBpeBaOa4Lr-7" value="Menu Item 4" style="strokeColor=inherit;fillColor=inherit;gradientColor=inherit;strokeWidth=1;html=1;shadow=0;dashed=0;shape=mxgraph.android.rrect;rSize=0;align=left;spacingLeft=10;fontSize=8;fontColor=#ffffff;" parent="JQU1K72GTcBpeBaOa4Lr-3" vertex="1">
                    <mxGeometry y="67.5" width="120" height="22.5" as="geometry"/>
                </mxCell>
                <mxCell id="JQU1K72GTcBpeBaOa4Lr-8" value="" style="shape=rect;fillColor=#e0e0e0;strokeColor=none;" parent="kMUpX2FhetktPCQvNUx9-1" vertex="1">
                    <mxGeometry x="576" y="65" width="164" height="20" as="geometry"/>
                </mxCell>
                <mxCell id="JQU1K72GTcBpeBaOa4Lr-9" value="" style="html=1;strokeWidth=1;shadow=0;dashed=0;shape=mxgraph.ios7ui.marginRect;rx=3;ry=3;rectMargin=5;strokeColor=none;" parent="JQU1K72GTcBpeBaOa4Lr-8" vertex="1">
                    <mxGeometry width="164" height="20" as="geometry"/>
                </mxCell>
                <mxCell id="JQU1K72GTcBpeBaOa4Lr-10" value="Buscar" style="shape=mxgraph.ios7.icons.looking_glass;strokeColor=#e0e0e0;fillColor=none;fontColor=#e0e0e0;labelPosition=right;verticalLabelPosition=middle;align=left;verticalAlign=middle;fontSize=6;fontStyle=0;spacingTop=2;" parent="JQU1K72GTcBpeBaOa4Lr-8" vertex="1">
                    <mxGeometry x="0.5" y="0.5" width="6" height="6" relative="1" as="geometry">
                        <mxPoint x="-17" y="-3" as="offset"/>
                    </mxGeometry>
                </mxCell>
                <mxCell id="JQU1K72GTcBpeBaOa4Lr-11" value="&lt;font style=&quot;font-size: 24px&quot;&gt;Agrupación X&lt;/font&gt;" style="text;html=1;strokeColor=none;fillColor=none;align=center;verticalAlign=middle;whiteSpace=wrap;rounded=0;" parent="kMUpX2FhetktPCQvNUx9-1" vertex="1">
                    <mxGeometry x="230" y="110" width="190" height="20" as="geometry"/>
                </mxCell>
                <mxCell id="JQU1K72GTcBpeBaOa4Lr-28" value="" style="rounded=0;whiteSpace=wrap;html=1;" parent="kMUpX2FhetktPCQvNUx9-1" vertex="1">
                    <mxGeometry x="90" y="540" width="670" height="410" as="geometry"/>
                </mxCell>
                <mxCell id="JQU1K72GTcBpeBaOa4Lr-29" value="" style="rounded=0;whiteSpace=wrap;html=1;" parent="kMUpX2FhetktPCQvNUx9-1" vertex="1">
                    <mxGeometry x="90" y="540" width="120" height="410" as="geometry"/>
                </mxCell>
                <mxCell id="JQU1K72GTcBpeBaOa4Lr-30" value="&lt;font style=&quot;font-size: 36px&quot;&gt;Boon&lt;/font&gt;" style="text;html=1;strokeColor=none;fillColor=none;align=center;verticalAlign=middle;whiteSpace=wrap;rounded=0;" parent="kMUpX2FhetktPCQvNUx9-1" vertex="1">
                    <mxGeometry x="95" y="550" width="110" height="50" as="geometry"/>
                </mxCell>
                <mxCell id="JQU1K72GTcBpeBaOa4Lr-31" value="" style="strokeWidth=1;html=1;shadow=0;dashed=0;shape=mxgraph.android.rrect;rSize=0;strokeColor=#888888;fillColor=#444444;" parent="kMUpX2FhetktPCQvNUx9-1" vertex="1">
                    <mxGeometry x="90" y="620" width="120" height="90" as="geometry"/>
                </mxCell>
                <mxCell id="JQU1K72GTcBpeBaOa4Lr-32" value="Por categoría" style="strokeColor=inherit;fillColor=inherit;gradientColor=inherit;strokeWidth=1;html=1;shadow=0;dashed=0;shape=mxgraph.android.rrect;rSize=0;align=left;spacingLeft=10;fontSize=8;fontColor=#ffffff;" parent="JQU1K72GTcBpeBaOa4Lr-31" vertex="1">
                    <mxGeometry width="120" height="22.5" as="geometry"/>
                </mxCell>
                <mxCell id="JQU1K72GTcBpeBaOa4Lr-33" value="Por ubicación" style="strokeColor=inherit;fillColor=inherit;gradientColor=inherit;strokeWidth=1;html=1;shadow=0;dashed=0;shape=mxgraph.android.rrect;rSize=0;align=left;spacingLeft=10;fontSize=8;fontColor=#ffffff;" parent="JQU1K72GTcBpeBaOa4Lr-31" vertex="1">
                    <mxGeometry y="22.5" width="120" height="22.5" as="geometry"/>
                </mxCell>
                <mxCell id="JQU1K72GTcBpeBaOa4Lr-34" value="Por nececidades" style="strokeColor=inherit;fillColor=inherit;gradientColor=inherit;strokeWidth=1;html=1;shadow=0;dashed=0;shape=mxgraph.android.rrect;rSize=0;align=left;spacingLeft=10;fontSize=8;fontColor=#ffffff;" parent="JQU1K72GTcBpeBaOa4Lr-31" vertex="1">
                    <mxGeometry y="45" width="120" height="22.5" as="geometry"/>
                </mxCell>
                <mxCell id="JQU1K72GTcBpeBaOa4Lr-35" value="Menu Item 4" style="strokeColor=inherit;fillColor=inherit;gradientColor=inherit;strokeWidth=1;html=1;shadow=0;dashed=0;shape=mxgraph.android.rrect;rSize=0;align=left;spacingLeft=10;fontSize=8;fontColor=#ffffff;" parent="JQU1K72GTcBpeBaOa4Lr-31" vertex="1">
                    <mxGeometry y="67.5" width="120" height="22.5" as="geometry"/>
                </mxCell>
                <mxCell id="JQU1K72GTcBpeBaOa4Lr-36" value="" style="shape=rect;fillColor=#e0e0e0;strokeColor=none;" parent="kMUpX2FhetktPCQvNUx9-1" vertex="1">
                    <mxGeometry x="576" y="555" width="164" height="20" as="geometry"/>
                </mxCell>
                <mxCell id="JQU1K72GTcBpeBaOa4Lr-37" value="" style="html=1;strokeWidth=1;shadow=0;dashed=0;shape=mxgraph.ios7ui.marginRect;rx=3;ry=3;rectMargin=5;strokeColor=none;" parent="JQU1K72GTcBpeBaOa4Lr-36" vertex="1">
                    <mxGeometry width="164" height="20" as="geometry"/>
                </mxCell>
                <mxCell id="JQU1K72GTcBpeBaOa4Lr-38" value="Buscar" style="shape=mxgraph.ios7.icons.looking_glass;strokeColor=#e0e0e0;fillColor=none;fontColor=#e0e0e0;labelPosition=right;verticalLabelPosition=middle;align=left;verticalAlign=middle;fontSize=6;fontStyle=0;spacingTop=2;" parent="JQU1K72GTcBpeBaOa4Lr-36" vertex="1">
                    <mxGeometry x="0.5" y="0.5" width="6" height="6" relative="1" as="geometry">
                        <mxPoint x="-17" y="-3" as="offset"/>
                    </mxGeometry>
                </mxCell>
                <mxCell id="JQU1K72GTcBpeBaOa4Lr-56" value="" style="aspect=fixed;html=1;points=[];align=center;image;fontSize=12;image=img/lib/azure2/general/Image.svg;" parent="kMUpX2FhetktPCQvNUx9-1" vertex="1">
                    <mxGeometry x="538.91" y="150" width="189.09" height="130" as="geometry"/>
                </mxCell>
                <mxCell id="JQU1K72GTcBpeBaOa4Lr-57" value="&lt;h1&gt;&lt;span style=&quot;font-size: 12px ; font-weight: normal&quot;&gt;Lorem ipsum dolor sit amet, consectetur adipisicing elit, sed do eiusmod tempor incididunt ut labore et dolore magna aliqua.&lt;/span&gt;&lt;br&gt;&lt;/h1&gt;" style="text;html=1;strokeColor=none;fillColor=none;spacing=5;spacingTop=-20;whiteSpace=wrap;overflow=hidden;rounded=0;" parent="kMUpX2FhetktPCQvNUx9-1" vertex="1">
                    <mxGeometry x="250" y="150" width="250" height="100" as="geometry"/>
                </mxCell>
                <mxCell id="JQU1K72GTcBpeBaOa4Lr-58" value="&lt;span style=&quot;font-size: 24px&quot;&gt;Necesitamos:&lt;/span&gt;" style="text;html=1;strokeColor=none;fillColor=none;align=center;verticalAlign=middle;whiteSpace=wrap;rounded=0;" parent="kMUpX2FhetktPCQvNUx9-1" vertex="1">
                    <mxGeometry x="240" y="340" width="190" height="20" as="geometry"/>
                </mxCell>
                <mxCell id="JQU1K72GTcBpeBaOa4Lr-59" value="&lt;ul&gt;&lt;li&gt;Value 1&lt;/li&gt;&lt;li&gt;Value 2&lt;/li&gt;&lt;li&gt;Value 3&lt;/li&gt;&lt;/ul&gt;" style="text;strokeColor=none;fillColor=none;html=1;whiteSpace=wrap;verticalAlign=middle;overflow=hidden;" parent="kMUpX2FhetktPCQvNUx9-1" vertex="1">
                    <mxGeometry x="240" y="360" width="100" height="80" as="geometry"/>
                </mxCell>
                <mxCell id="JQU1K72GTcBpeBaOa4Lr-61" value="" style="dashed=0;outlineConnect=0;html=1;align=center;labelPosition=center;verticalLabelPosition=bottom;verticalAlign=top;shape=mxgraph.weblogos.instagram;fillColor=#6FC0E4;gradientColor=#1E305B" parent="kMUpX2FhetktPCQvNUx9-1" vertex="1">
                    <mxGeometry x="300" y="260" width="30" height="30" as="geometry"/>
                </mxCell>
                <mxCell id="JQU1K72GTcBpeBaOa4Lr-62" value="" style="dashed=0;outlineConnect=0;html=1;align=center;labelPosition=center;verticalLabelPosition=bottom;verticalAlign=top;shape=mxgraph.webicons.facebook;fillColor=#6294E4;gradientColor=#1A2665" parent="kMUpX2FhetktPCQvNUx9-1" vertex="1">
                    <mxGeometry x="260" y="260" width="30" height="30" as="geometry"/>
                </mxCell>
                <mxCell id="JQU1K72GTcBpeBaOa4Lr-63" value="" style="dashed=0;outlineConnect=0;html=1;align=center;labelPosition=center;verticalLabelPosition=bottom;verticalAlign=top;shape=mxgraph.webicons.twitter;fillColor=#49EAF7;gradientColor=#137BD0" parent="kMUpX2FhetktPCQvNUx9-1" vertex="1">
                    <mxGeometry x="340" y="260" width="30" height="30" as="geometry"/>
                </mxCell>
                <mxCell id="JQU1K72GTcBpeBaOa4Lr-64" value="&lt;font style=&quot;font-size: 14px&quot;&gt;Quiero ayudar&lt;/font&gt;" style="html=1;shadow=0;dashed=0;shape=mxgraph.bootstrap.rrect;rSize=5;strokeColor=none;strokeWidth=1;fillColor=#33A64C;fontColor=#FFFFFF;whiteSpace=wrap;align=center;verticalAlign=middle;spacingLeft=0;fontStyle=0;fontSize=16;spacing=5;" parent="kMUpX2FhetktPCQvNUx9-1" vertex="1">
                    <mxGeometry x="628" y="400" width="100" height="30" as="geometry"/>
                </mxCell>
                <mxCell id="JQU1K72GTcBpeBaOa4Lr-65" value="" style="strokeColor=#999999;verticalLabelPosition=bottom;shadow=0;dashed=0;verticalAlign=top;strokeWidth=2;html=1;shape=mxgraph.mockup.misc.shareIcon;" parent="kMUpX2FhetktPCQvNUx9-1" vertex="1">
                    <mxGeometry x="442" y="107" width="30" height="30" as="geometry"/>
                </mxCell>
                <mxCell id="JQU1K72GTcBpeBaOa4Lr-66" value="Descripción de la foto" style="text;html=1;strokeColor=none;fillColor=none;align=center;verticalAlign=middle;whiteSpace=wrap;rounded=0;" parent="kMUpX2FhetktPCQvNUx9-1" vertex="1">
                    <mxGeometry x="576" y="280" width="140" height="20" as="geometry"/>
                </mxCell>
                <mxCell id="tAts3G7WPIIQPfRUPY7Q-0" value="Ingresar" style="rounded=1;fillColor=#0057D8;align=center;strokeColor=none;html=1;fontColor=#ffffff;fontSize=12" parent="kMUpX2FhetktPCQvNUx9-1" vertex="1">
                    <mxGeometry x="112" y="400" width="76" height="19.9" as="geometry"/>
                </mxCell>
                <mxCell id="tAts3G7WPIIQPfRUPY7Q-1" value="Regístrate" style="rounded=1;fillColor=#0057D8;align=center;strokeColor=none;html=1;fontColor=#ffffff;fontSize=12" parent="kMUpX2FhetktPCQvNUx9-1" vertex="1">
                    <mxGeometry x="113" y="427" width="75" height="23" as="geometry"/>
                </mxCell>
                <mxCell id="tAts3G7WPIIQPfRUPY7Q-2" value="Ingresar" style="rounded=1;fillColor=#0057D8;align=center;strokeColor=none;html=1;fontColor=#ffffff;fontSize=12" parent="kMUpX2FhetktPCQvNUx9-1" vertex="1">
                    <mxGeometry x="112" y="890" width="76" height="19.9" as="geometry"/>
                </mxCell>
                <mxCell id="tAts3G7WPIIQPfRUPY7Q-3" value="Regístrate" style="rounded=1;fillColor=#0057D8;align=center;strokeColor=none;html=1;fontColor=#ffffff;fontSize=12" parent="kMUpX2FhetktPCQvNUx9-1" vertex="1">
                    <mxGeometry x="113" y="917" width="75" height="23" as="geometry"/>
                </mxCell>
                <mxCell id="4F3A5g168fWdUhs8VLQc-0" value="&lt;font style=&quot;font-size: 24px&quot;&gt;Campaña X&lt;/font&gt;" style="text;html=1;strokeColor=none;fillColor=none;align=center;verticalAlign=middle;whiteSpace=wrap;rounded=0;" parent="kMUpX2FhetktPCQvNUx9-1" vertex="1">
                    <mxGeometry x="230" y="603" width="190" height="20" as="geometry"/>
                </mxCell>
                <mxCell id="4F3A5g168fWdUhs8VLQc-1" value="" style="aspect=fixed;html=1;points=[];align=center;image;fontSize=12;image=img/lib/azure2/general/Image.svg;" parent="kMUpX2FhetktPCQvNUx9-1" vertex="1">
                    <mxGeometry x="538.91" y="643" width="189.09" height="130" as="geometry"/>
                </mxCell>
                <mxCell id="4F3A5g168fWdUhs8VLQc-2" value="&lt;h1&gt;&lt;span style=&quot;font-size: 12px ; font-weight: normal&quot;&gt;Lorem ipsum dolor sit amet, consectetur adipisicing elit, sed do eiusmod tempor incididunt ut labore et dolore magna aliqua.&lt;/span&gt;&lt;br&gt;&lt;/h1&gt;" style="text;html=1;strokeColor=none;fillColor=none;spacing=5;spacingTop=-20;whiteSpace=wrap;overflow=hidden;rounded=0;" parent="kMUpX2FhetktPCQvNUx9-1" vertex="1">
                    <mxGeometry x="250" y="643" width="250" height="100" as="geometry"/>
                </mxCell>
                <mxCell id="4F3A5g168fWdUhs8VLQc-3" value="" style="strokeColor=#999999;verticalLabelPosition=bottom;shadow=0;dashed=0;verticalAlign=top;strokeWidth=2;html=1;shape=mxgraph.mockup.misc.shareIcon;" parent="kMUpX2FhetktPCQvNUx9-1" vertex="1">
                    <mxGeometry x="442" y="600" width="30" height="30" as="geometry"/>
                </mxCell>
                <mxCell id="4F3A5g168fWdUhs8VLQc-4" value="Descripción de la foto" style="text;html=1;strokeColor=none;fillColor=none;align=center;verticalAlign=middle;whiteSpace=wrap;rounded=0;" parent="kMUpX2FhetktPCQvNUx9-1" vertex="1">
                    <mxGeometry x="576" y="773" width="140" height="20" as="geometry"/>
                </mxCell>
                <mxCell id="4F3A5g168fWdUhs8VLQc-5" value="" style="html=1;shadow=0;dashed=0;shape=mxgraph.bootstrap.rrect;rSize=5;fillColor=#E9ECEF;strokeColor=none;" parent="kMUpX2FhetktPCQvNUx9-1" vertex="1">
                    <mxGeometry x="250" y="904.9499999999999" width="280" height="20" as="geometry"/>
                </mxCell>
                <mxCell id="4F3A5g168fWdUhs8VLQc-6" value="25%" style="html=1;shadow=0;dashed=0;shape=mxgraph.bootstrap.leftButton;rSize=5;fillColor=#0085FC;strokeColor=none;fontColor=#ffffff;resizeHeight=1;" parent="4F3A5g168fWdUhs8VLQc-5" vertex="1">
                    <mxGeometry width="70" height="20" relative="1" as="geometry"/>
                </mxCell>
                <mxCell id="4F3A5g168fWdUhs8VLQc-7" value="&lt;font style=&quot;font-size: 14px&quot;&gt;Quiero ayudar&lt;/font&gt;" style="html=1;shadow=0;dashed=0;shape=mxgraph.bootstrap.rrect;rSize=5;strokeColor=none;strokeWidth=1;fillColor=#33A64C;fontColor=#FFFFFF;whiteSpace=wrap;align=center;verticalAlign=middle;spacingLeft=0;fontStyle=0;fontSize=16;spacing=5;" parent="kMUpX2FhetktPCQvNUx9-1" vertex="1">
                    <mxGeometry x="628" y="899.9" width="100" height="30" as="geometry"/>
                </mxCell>
                <mxCell id="4F3A5g168fWdUhs8VLQc-8" value="&lt;span style=&quot;font-size: 24px&quot;&gt;Hemos reunido&lt;/span&gt;" style="text;html=1;strokeColor=none;fillColor=none;align=center;verticalAlign=middle;whiteSpace=wrap;rounded=0;" parent="kMUpX2FhetktPCQvNUx9-1" vertex="1">
                    <mxGeometry x="240" y="874.9499999999999" width="190" height="20" as="geometry"/>
                </mxCell>
                <mxCell id="4F3A5g168fWdUhs8VLQc-9" value="&lt;ul&gt;&lt;li&gt;Value 1&lt;/li&gt;&lt;li&gt;Value 2&lt;/li&gt;&lt;li&gt;Value 3&lt;/li&gt;&lt;/ul&gt;" style="text;strokeColor=none;fillColor=none;html=1;whiteSpace=wrap;verticalAlign=middle;overflow=hidden;" parent="kMUpX2FhetktPCQvNUx9-1" vertex="1">
                    <mxGeometry x="230" y="730" width="100" height="80" as="geometry"/>
                </mxCell>
            </root>
        </mxGraphModel>
    </diagram>
</mxfile>